<?xml version="1.0" ?><!DOCTYPE svg  PUBLIC '-//W3C//DTD SVG 1.1//EN'  'http://www.w3.org/Graphics/SVG/1.1/DTD/svg11.dtd'><svg height="2048px" style="shape-rendering:geometricPrecision; text-rendering:geometricPrecision; image-rendering:optimizeQuality; fill-rule:evenodd; clip-rule:evenodd" viewBox="0 0 2048 2048" width="2048px" xml:space="preserve" xmlns="http://www.w3.org/2000/svg" xmlns:xlink="http://www.w3.org/1999/xlink"><defs><style type="text/css">
   <![CDATA[
    .fil1 {fill:none}
    .fil0 {fill:#424242}
   ]]>
  </style></defs><g id="Layer_x0020_1"><path class="fil0" d="M567.932 1724.61l790.426 0 0 -560.175 95.9977 0 0 656.173 -982.422 0 0 -656.173 95.9977 0 0 560.175zm75.1276 -240.162l640.173 0 0 95.9977 -640.173 0 0 -95.9977zm23.7614 -244.374l636.558 67.9418 -10.1433 95.3883 -636.558 -67.9418 10.1433 -95.3883zm44.739 -248.124l616.819 171.34 -25.5496 92.4331 -616.819 -171.34 25.5496 -92.4331zm145.8 -296.282l556.141 317.064 -47.3363 83.4072 -556.141 -317.064 47.3363 -83.4072zm292.582 -285.486l378.388 516.374 -77.367 56.7071 -378.388 -516.374 77.367 -56.7071zm380.625 -150.962l137.147 625.31 -93.8056 20.2583 -137.147 -625.31 93.8056 -20.2583z"/></g><rect class="fil1" height="2048" width="2048"/></svg>